<svg width="140" height="140" viewBox="0 0 140 140" fill="none" xmlns="http://www.w3.org/2000/svg">
<rect width="140" height="140" rx="70" fill="black"/>
<path d="M51.5963 38.875H62.5963V54.625V62.5V66.4375L64.5963 65.875L68.0963 64.875L62.5963 67.625L41.0963 76.875L51.5963 70.875V65.125V56.375V38.875Z" fill="white"/>
<circle cx="57" cy="73" r="1" fill="#D9D9D9"/>
<path d="M62.5963 100.5H51.5963V91.125V83.25V79.3125L48.5963 80.375L45.5963 81.375L51.5963 78.125L73.0963 68.875L62.5963 75.375V80.625V89.375V100.5Z" fill="white"/>
<path d="M65.6597 36.315C59.8909 36.0295 42.5 36.315 42.5 36.315L33.3761 26C33.3761 26 59.8836 25.3752 65.6597 25.3751C71.1845 25.375 97.0008 28.3586 103.832 45.2658C107.096 53.3464 106.596 70.8751 106.596 70.8751H93.5963C93.5963 70.8751 93.7864 54.4652 90.0194 48.7466C82.8071 37.7977 70.6823 36.5637 65.6597 36.315Z" fill="white"/>
<path d="M65.5963 103.625C59.8535 103.912 48 103.625 48 103.625V114.625C48 114.625 59.8463 114.625 65.5963 114.625C71.0963 114.625 96.7963 111.625 103.596 94.625C106.846 86.5 106.596 68.875 106.596 68.875H93.5963C93.5963 68.875 93.5963 85.375 89.8463 91.125C82.6665 102.134 70.5963 103.375 65.5963 103.625Z" fill="white"/>
</svg>
